<?xml version="1.0" encoding="UTF-8"?>
<svg width="50px" height="48px" viewBox="0 0 50 48" version="1.1" xmlns="http://www.w3.org/2000/svg" xmlns:xlink="http://www.w3.org/1999/xlink">
    <title>形状结合</title>
    <g id="页面-1" stroke="none" stroke-width="1" fill="none" fill-rule="evenodd">
        <g id="首页-英文版" transform="translate(-973.000000, -3865.000000)" fill="#0E0E0E" fill-rule="nonzero">
            <g id="项目特点" transform="translate(0.000000, 3141.000000)">
                <g id="编组-14" transform="translate(972.000000, 160.000000)">
                    <g id="形状结合-4" transform="translate(1.000000, 564.000000)">
                        <path d="M10.4502975,39.7653303 C14.1521184,43.6022718 19.379998,45.9939759 25.1739927,45.9939759 C30.8838269,45.9939759 36.0438727,43.6712484 39.7366444,39.9311197 C40.2543736,40.3786745 40.8366034,40.7558677 41.4673316,41.0479987 C37.3898185,45.3269585 31.5982594,48 25.1739927,48 C18.6926853,48 12.855371,45.2792803 8.77104891,40.9321425 C9.38595642,40.6204226 9.95048931,40.226597 10.4502975,39.7653303 Z M44.6153846,29.1054217 C47.5892256,29.1054217 50,31.4842461 50,34.4186747 C50,37.2797426 47.7082576,39.6126392 44.8373381,39.7274959 L44.6153846,39.7319277 C41.6415437,39.7319277 39.2307692,37.3531033 39.2307692,34.4186747 C39.2307692,31.4842461 41.6415437,29.1054217 44.6153846,29.1054217 Z M5.38461538,29.1054217 C8.35845635,29.1054217 10.7692308,31.4842461 10.7692308,34.4186747 C10.7692308,37.2797426 8.47748833,39.6126392 5.60656884,39.7274959 L5.38461538,39.7319277 C2.41077442,39.7319277 0,37.3531033 0,34.4186747 C0,31.4842461 2.41077442,29.1054217 5.38461538,29.1054217 Z M44.6153846,31.1114458 C42.7643203,31.1114458 41.2637363,32.5921426 41.2637363,34.4186747 C41.2637363,36.2452068 42.7643203,37.7259036 44.6153846,37.7259036 C46.4664489,37.7259036 47.967033,36.2452068 47.967033,34.4186747 C47.967033,32.5921426 46.4664489,31.1114458 44.6153846,31.1114458 Z M5.38461538,31.1114458 C3.53355111,31.1114458 2.03296703,32.5921426 2.03296703,34.4186747 C2.03296703,36.2452068 3.53355111,37.7259036 5.38461538,37.7259036 C7.23567966,37.7259036 8.73626374,36.2452068 8.73626374,34.4186747 C8.73626374,32.5921426 7.23567966,31.1114458 5.38461538,31.1114458 Z M23,27 C23.5522847,27 24,27.4477153 24,28 L24,34 C24,34.5522847 23.5522847,35 23,35 L17,35 C16.4477153,35 16,34.5522847 16,34 L16,28 C16,27.4477153 16.4477153,27 17,27 L23,27 Z M33,27 C33.5522847,27 34,27.4477153 34,28 L34,34 C34,34.5522847 33.5522847,35 33,35 L27,35 C26.4477153,35 26,34.5522847 26,34 L26,28 C26,27.4477153 26.4477153,27 27,27 L33,27 Z M32.6626694,5.13462507 C41.329844,8.17340683 47.53663,16.3383409 47.53663,25.9337349 C47.53663,26.5149023 47.5138611,27.0908221 47.4691553,27.6606733 C46.8407972,27.4020515 46.1687235,27.2262499 45.4668921,27.1471004 C45.4913271,26.7466249 45.503663,26.3416014 45.503663,25.9337349 C45.503663,17.4817409 40.206392,10.2505936 32.7091901,7.29658419 L32.4202107,7.18450099 C32.5798185,6.5872035 32.6648352,5.96002503 32.6648352,5.31325301 C32.6648352,5.25354066 32.6641105,5.19399531 32.6626694,5.13462507 Z M17.8334325,5.08378638 L17.8296703,5.31325301 C17.8296703,5.94249637 17.9101413,6.55319382 18.0614824,7.13587189 C10.3414641,9.98070869 4.84432234,17.3237666 4.84432234,25.9337349 C4.84432234,26.3307881 4.85601279,26.7251469 4.87907257,27.1164947 C4.17851943,27.1625828 3.50389476,27.3052783 2.86941522,27.5309071 C2.83079767,27.0033274 2.81135531,26.4707716 2.81135531,25.9337349 C2.81135531,16.2840898 9.08852449,8.08112562 17.8334325,5.08378638 Z M23,17 C23.5522847,17 24,17.4477153 24,18 L24,24 C24,24.5522847 23.5522847,25 23,25 L17,25 C16.4477153,25 16,24.5522847 16,24 L16,18 C16,17.4477153 16.4477153,17 17,17 L23,17 Z M30,17 C32.209139,17 34,18.790861 34,21 C34,23.209139 32.209139,25 30,25 C27.790861,25 26,23.209139 26,21 C26,18.790861 27.790861,17 30,17 Z M25.2472527,0 C28.2210937,0 30.6318681,2.3788244 30.6318681,5.31325301 C30.6318681,8.17432091 28.3401257,10.5072176 25.4692062,10.6220742 L25.2472527,10.626506 C22.2734118,10.626506 19.8626374,8.24768162 19.8626374,5.31325301 C19.8626374,2.3788244 22.2734118,0 25.2472527,0 Z M25.2472527,2.0060241 C23.3961885,2.0060241 21.8956044,3.48672092 21.8956044,5.31325301 C21.8956044,7.13978511 23.3961885,8.62048193 25.2472527,8.62048193 C27.098317,8.62048193 28.5989011,7.13978511 28.5989011,5.31325301 C28.5989011,3.48672092 27.098317,2.0060241 25.2472527,2.0060241 Z" id="形状结合"></path>
                    </g>
                </g>
            </g>
        </g>
    </g>
</svg>