<?xml version="1.0" encoding="UTF-8"?>
<svg width="46px" height="50px" viewBox="0 0 46 50" version="1.1" xmlns="http://www.w3.org/2000/svg" xmlns:xlink="http://www.w3.org/1999/xlink">
    <title>形状结合</title>
    <g id="页面-1" stroke="none" stroke-width="1" fill="none" fill-rule="evenodd">
        <g id="首页-英文版" transform="translate(-975.000000, -3645.000000)" fill="#0E0E0E">
            <g id="项目特点" transform="translate(0.000000, 3141.000000)">
                <g id="编组-14" transform="translate(972.000000, 160.000000)">
                    <g id="形状结合-2" transform="translate(3.000000, 344.000000)">
                        <path d="M25.8717949,-6.48244174e-17 C26.4028379,-5.13531367e-17 26.8333333,0.430495433 26.8333333,0.961538462 C26.8333333,1.49258149 26.4028379,1.92307692 25.8717949,1.92307692 L23.958,1.923 L23.9585666,3.86583227 C29.3546687,4.08779212 34.2712325,6.17511941 38.0847693,9.50224029 C38.1207124,9.44203943 38.1653155,9.38568216 38.217068,9.33375652 L40.927644,6.61411505 C41.3006489,6.23986261 41.9064207,6.2388513 42.2806732,6.61185624 C42.2814274,6.61260792 42.2821803,6.61336086 42.282932,6.61411505 C42.6575499,6.98998584 42.6575499,7.598065 42.282932,7.97393579 L39.572356,10.6935773 C39.5341977,10.7318632 39.4936034,10.7662431 39.4510702,10.7967161 C43.5026914,14.9554597 46,20.6466541 46,26.9230769 C46,39.6681096 35.7025492,50 23,50 C10.2974508,50 0,39.6681096 0,26.9230769 C0,20.6466541 2.49730856,14.9554597 6.54934141,10.7952304 C6.50639659,10.7662431 6.46580232,10.7318632 6.427644,10.6935773 L6.427644,10.6935773 L3.717068,7.97393579 C3.34245012,7.598065 3.34245012,6.98998584 3.717068,6.61411505 C3.71781968,6.61336086 3.71857262,6.61260792 3.71932682,6.61185624 C4.09357926,6.2388513 4.69935106,6.23986261 5.072356,6.61411505 L5.072356,6.61411505 L7.782932,9.33375652 C7.83468455,9.38568216 7.87928761,9.44203943 7.91674118,9.5016039 C11.7287675,6.17511941 16.6453313,4.08779212 22.0414334,3.86583227 L22.041,1.923 L20.1282051,1.92307692 C19.5971621,1.92307692 19.1666667,1.49258149 19.1666667,0.961538462 C19.1666667,0.430495433 19.5971621,1.27259846e-15 20.1282051,2.86869022e-16 L25.8717949,-6.48244174e-17 Z M23,5.76923077 C11.3559965,5.76923077 1.91666667,15.2401303 1.91666667,26.9230769 C1.91666667,38.6060236 11.3559965,48.0769231 23,48.0769231 C34.6440035,48.0769231 44.0833333,38.6060236 44.0833333,26.9230769 C44.0833333,15.2401303 34.6440035,5.76923077 23,5.76923077 Z M23,11.5384615 C31.4683662,11.5384615 38.3333333,18.4263885 38.3333333,26.9230769 C38.3333333,35.4197654 31.4683662,42.3076923 23,42.3076923 C14.5316338,42.3076923 7.66666667,35.4197654 7.66666667,26.9230769 C7.66666667,26.3920339 8.09572711,25.9615385 8.625,25.9615385 C9.15427289,25.9615385 9.58333333,26.3920339 9.58333333,26.9230769 C9.58333333,34.3576793 15.5901796,40.3846154 23,40.3846154 C30.4098204,40.3846154 36.4166667,34.3576793 36.4166667,26.9230769 C36.4166667,19.4884745 30.4098204,13.4615385 23,13.4615385 C22.4707271,13.4615385 22.0416667,13.031043 22.0416667,12.5 C22.0416667,11.968957 22.4707271,11.5384615 23,11.5384615 Z M23,19.2307692 C23.5292729,19.2307692 23.9583333,19.6598297 23.9583333,20.1891026 L23.9580097,23.1980102 C25.6115167,23.6248615 26.8333333,25.1308067 26.8333333,26.9230769 C26.8333333,29.047249 25.1170915,30.7692308 23,30.7692308 C20.8829085,30.7692308 19.1666667,29.047249 19.1666667,26.9230769 C19.1666667,25.1308067 20.3884833,23.6248615 22.0419903,23.1980102 L22.0416667,20.1891026 C22.0416667,19.6598297 22.4707271,19.2307692 23,19.2307692 Z M23,25 C21.9414542,25 21.0833333,25.8609909 21.0833333,26.9230769 C21.0833333,27.985163 21.9414542,28.8461538 23,28.8461538 C24.0585458,28.8461538 24.9166667,27.985163 24.9166667,26.9230769 C24.9166667,25.8609909 24.0585458,25 23,25 Z" id="形状结合"></path>
                    </g>
                </g>
            </g>
        </g>
    </g>
</svg>