<?xml version="1.0" encoding="UTF-8"?>
<svg width="52px" height="44px" viewBox="0 0 52 44" version="1.1" xmlns="http://www.w3.org/2000/svg" xmlns:xlink="http://www.w3.org/1999/xlink">
    <title>形状结合</title>
    <g id="页面-1" stroke="none" stroke-width="1" fill="none" fill-rule="evenodd">
        <g id="首页-英文版" transform="translate(-972.000000, -3301.000000)" fill="#00C697" fill-rule="nonzero">
            <g id="项目特点" transform="translate(0.000000, 3141.000000)">
                <g id="编组-25" transform="translate(972.000000, 160.000000)">
                    <path d="M37.7254902,15.3480004 C45.6090843,15.3480004 52,21.761969 52,29.6740002 C52,37.5860314 45.6090843,44 37.7254902,44 C29.8418961,44 23.4509804,37.5860314 23.4509804,29.6740002 C23.4509804,21.761969 29.8418961,15.3480004 37.7254902,15.3480004 Z M37.7254902,17.3945718 C30.9681238,17.3945718 25.4901961,22.8922592 25.4901961,29.6740002 C25.4901961,36.4557412 30.9681238,41.9534286 37.7254902,41.9534286 C44.4828565,41.9534286 49.9607843,36.4557412 49.9607843,29.6740002 C49.9607843,22.8922592 44.4828565,17.3945718 37.7254902,17.3945718 Z M19.8110832,0 L20.6808987,0.0101992048 C20.9691572,0.0152762417 21.25569,0.0220185454 21.5403606,0.030390011 L22.3886484,0.0603557886 L23.224942,0.0998799079 L24.0484211,0.148745739 C24.1845542,0.157656485 24.3201191,0.166947443 24.4550989,0.1766141 L25.2578184,0.239086318 L26.0456728,0.310358674 L26.8178419,0.390214537 L27.5735056,0.478437278 L28.3118434,0.574810267 L29.0320353,0.679116874 L29.7332609,0.79114047 C29.8485058,0.810442116 29.9629262,0.830056278 30.0765051,0.849978442 L30.7477434,0.973171339 L31.397965,1.10353965 C31.6111115,1.14816759 31.8206186,1.19395532 32.0263494,1.24086675 L32.6320767,1.384936 L33.2143263,1.53553077 C33.3093659,1.56116166 33.4033931,1.58705542 33.4963908,1.61320753 L34.0418863,1.77318441 C36.8749685,2.63982745 38.6256485,3.76019247 38.7392127,4.98777562 L38.745098,5.11514344 L38.7459231,13.3329379 C38.4084525,13.3120351 38.0682055,13.301429 37.7254902,13.301429 C37.3827749,13.301429 37.0425279,13.3120351 36.7050573,13.3329379 L36.7064091,7.4023379 C35.983924,7.78352365 35.0864811,8.13755973 34.0418863,8.45710247 L33.4963908,8.61707935 C33.4033931,8.64323146 33.3093659,8.66912522 33.2143263,8.69475611 L32.6320767,8.84535088 L32.0263494,8.98942013 C31.8206186,9.03633156 31.6111115,9.08211929 31.397965,9.12674723 L30.7477434,9.25711554 L30.0765051,9.38030844 L29.3850701,9.49610929 L28.6742589,9.60430147 L27.9448915,9.70466835 L27.1977882,9.79699329 L26.4337693,9.88105967 L25.653655,9.95665086 C25.5223402,9.96853109 25.390389,9.98004916 25.2578184,9.99120056 L24.4550989,10.0536728 L23.6383346,10.1071282 C23.5010824,10.115274 23.3632791,10.1230351 23.224942,10.130407 L22.3886484,10.1699311 L21.5403606,10.1998969 C21.3980253,10.2040826 21.2552245,10.207861 21.1119751,10.2112277 L20.2472339,10.2264498 L19.372549,10.2315719 L18.4978641,10.2264498 L17.6331229,10.2112277 C17.4898736,10.207861 17.3470727,10.2040826 17.2047375,10.1998969 L16.3564497,10.1699311 L15.5201561,10.130407 L14.6966769,10.0815411 C14.5605439,10.0726304 14.4249789,10.0633394 14.2899991,10.0536728 L13.4872797,9.99120056 L12.6994252,9.91992821 L11.9272561,9.84007234 L11.1715925,9.7518496 L10.4332546,9.65547661 L9.71306277,9.55117001 L9.01183714,9.43914641 C8.89659229,9.41984476 8.78217187,9.4002306 8.66859298,9.38030844 L7.99735463,9.25711554 L7.34713309,9.12674723 C7.13398651,9.08211929 6.92447944,9.03633156 6.71874859,8.98942013 L6.11302138,8.84535088 L5.53077169,8.69475611 C5.4357321,8.66912522 5.34170492,8.64323146 5.24870724,8.61707935 L4.70321176,8.45710247 C3.65861693,8.13755973 2.76117406,7.78352365 2.03868893,7.4023379 L2.03921569,14.605095 L2.12657213,14.6339817 C7.61808553,16.3912904 13.1046374,17.3090681 18.5890724,17.3888717 L19.372549,17.3945718 C22.152319,17.3945718 24.9325979,17.179305 27.7137564,16.7485687 C26.8086477,17.4534098 25.9806335,18.2531649 25.2430597,19.1318966 C23.2867835,19.3383104 21.3297836,19.4411432 19.372549,19.4411432 C13.5919338,19.4411432 7.81336553,18.5441394 2.03983171,16.7517668 L2.03921569,24.837952 L2.12657213,24.8668387 C7.61808553,26.6241474 13.1046374,27.5419251 18.5890724,27.6217286 L19.372549,27.6274288 C20.096562,27.6274288 20.8206095,27.6128255 21.544698,27.5836152 C21.4582042,28.2549151 21.4134252,28.939866 21.41181,29.6349936 C20.7318412,29.6616 20.0522092,29.6740002 19.372549,29.6740002 C13.5919338,29.6740002 7.81336553,28.7769964 2.03983171,26.9846238 L2.03921569,35.070809 L2.12657213,35.0996957 C7.61808553,36.8570044 13.1046374,37.7747821 18.5890724,37.8545856 L19.372549,37.8602858 C20.7499472,37.8602858 22.1274704,37.8074317 23.5051636,37.701699 C23.885496,38.3809024 24.3136967,39.0297869 24.7843642,39.6442007 C22.9809932,39.8194647 21.1768708,39.9068572 19.372549,39.9068572 C13.4146184,39.9068572 7.45886226,38.9539798 1.50855149,37.050015 L0.697179533,36.7844885 L0,36.551257 L0,5.11514344 C0,3.83776071 1.77243703,2.66971169 4.70321176,1.77318441 L5.24870724,1.61320753 C5.34170492,1.58705542 5.4357321,1.56116166 5.53077169,1.53553077 L6.11302138,1.384936 L6.71874859,1.24086675 C6.92447944,1.19395532 7.13398651,1.14816759 7.34713309,1.10353965 L7.99735463,0.973171339 L8.66859298,0.849978442 L9.36002791,0.734177588 L10.0708392,0.625985408 L10.8002066,0.525618531 L11.5473098,0.433293587 L12.3113287,0.349227206 L13.0914431,0.273636018 C13.2227578,0.261755788 13.354709,0.250237717 13.4872797,0.239086318 L14.2899991,0.1766141 L15.1067634,0.123158649 L15.5201561,0.0998799079 L16.3564497,0.0603557886 L17.2047375,0.030390011 C17.3470727,0.0262042782 17.4898736,0.0224258358 17.6331229,0.0190591971 L18.4978641,0.0038371129 C18.6428391,0.00213574105 18.7882284,0.000855199045 18.9340149,0 L19.8110832,0 Z M37.9924964,23.534286 C38.5447811,23.534286 38.9924964,23.9820013 38.9924964,24.534286 L38.992451,32.561286 L41.5855486,29.9685124 C41.9851665,29.5688945 42.6319108,29.5677301 43.0300924,29.9659117 C43.3998325,30.3356518 43.4252386,30.9197138 43.1070251,31.3212213 L43.0274918,31.4104556 L39.4096305,35.0283169 C38.6467236,35.7912239 37.4334747,35.8280232 36.632126,35.1371628 L36.5205428,35.0335182 L32.9156847,31.4286601 C32.517503,31.0304784 32.5186674,30.3837341 32.9182853,29.9841162 C33.2893591,29.6130424 33.8735163,29.5855332 34.2738806,29.902303 L34.3628292,29.9815156 L36.952451,32.571286 L36.9532807,24.534286 C36.9532807,23.9820013 37.400996,23.534286 37.9532807,23.534286 L37.9924964,23.534286 Z M19.372549,2.04528634 C14.3295668,2.04528634 9.62004224,2.57137744 6.19305497,3.47646924 C4.60794108,3.89510914 3.37519739,4.37702567 2.59965366,4.86129023 L2.41240253,4.98453564 C2.38379719,5.00445458 2.35649399,5.02403708 2.33049374,5.04324501 L2.23701961,5.11514344 L2.33049374,5.18704187 L2.45628704,5.27587718 L2.59965366,5.36899665 C3.37519739,5.85326121 4.60794108,6.33517774 6.19305497,6.75381764 C9.62004224,7.65890944 14.3295668,8.18500054 19.372549,8.18500054 C24.4155313,8.18500054 29.1250558,7.65890944 32.5520431,6.75381764 C34.137157,6.33517774 35.3699007,5.85326121 36.1454444,5.36899665 L36.3326955,5.24575123 C36.3613008,5.2258323 36.3886041,5.2062498 36.4146043,5.18704187 L36.5070588,5.11514344 L36.4146043,5.04324501 L36.288811,4.9544097 L36.1454444,4.86129023 C35.3699007,4.37702567 34.137157,3.89510914 32.5520431,3.47646924 C29.1250558,2.57137744 24.4155313,2.04528634 19.372549,2.04528634 Z" id="形状结合"></path>
                </g>
            </g>
        </g>
    </g>
</svg>