<?xml version="1.0" encoding="UTF-8"?>
<svg width="48px" height="41px" viewBox="0 0 48 41" version="1.1" xmlns="http://www.w3.org/2000/svg" xmlns:xlink="http://www.w3.org/1999/xlink">
    <title>形状结合</title>
    <g id="页面-1" stroke="none" stroke-width="1" fill="none" fill-rule="evenodd">
        <g id="首页-英文版" transform="translate(-974.000000, -3755.000000)" fill="#0E0E0E" fill-rule="nonzero">
            <g id="项目特点" transform="translate(0.000000, 3141.000000)">
                <g id="编组-14" transform="translate(972.000000, 160.000000)">
                    <g id="形状结合-3" transform="translate(2.000000, 454.000000)">
                        <path d="M40,0 C44.418278,0 48,3.581722 48,8 L48,26 C48,30.418278 44.418278,34 40,34 L26,34 L26,37.714 L31.4618618,39.6649506 C31.7845783,39.7802065 32,40.085891 32,40.4285714 C32,40.7441627 31.7441627,41 31.4285714,41 L16.5714286,41 C16.2558373,41 16,40.7441627 16,40.4285714 C16,40.085891 16.2154217,39.7802065 16.5381382,39.6649506 L22,37.714 L22,34 L8,34 C3.581722,34 0,30.418278 0,26 L0,8 C0,3.581722 3.581722,0 8,0 L40,0 Z M40,2 L8,2 C4.76160306,2 2.12242824,4.56557489 2.00413847,7.77506174 L2,8 L2,26 C2,29.2383969 4.56557489,31.8775718 7.77506174,31.9958615 L8,32 L40,32 C43.2383969,32 45.8775718,29.4344251 45.9958615,26.2249383 L46,26 L46,8 C46,4.76160306 43.4344251,2.12242824 40.2249383,2.00413847 L40,2 Z M15.5,8 L15.5,10 C15.0695898,10 14.6451074,10.0416956 14.2303982,10.1237345 C13.8117009,10.2065624 13.4040937,10.3303037 13.0122532,10.4927851 C12.224025,10.8196336 11.5075228,11.3000891 10.9038059,11.9038059 C9.69203777,13.1155741 9,14.7517351 9,16.5 C9,20.0898509 11.9101491,23 15.5,23 C17.2482649,23 18.8844259,22.3079622 20.0961941,21.0961941 C20.6999109,20.4924772 21.1803664,19.775975 21.5072149,18.9877468 C21.6696963,18.5959063 21.7934376,18.1882991 21.8762655,17.7696018 C21.9377947,17.4585699 21.9766308,17.1420406 21.9922032,16.8216361 L22,16.5 L24,16.5 C24,17.0608907 23.9455361,17.6153613 23.838244,18.1577259 C23.7297361,18.7062368 23.5675689,19.2404196 23.3546808,19.7538211 C22.9269483,20.7853413 22.2989673,21.721848 21.5104076,22.5104076 C19.9272849,24.0935304 17.78415,25 15.5,25 C10.8055796,25 7,21.1944204 7,16.5 C7,14.21585 7.90646964,12.0727151 9.48959236,10.4895924 C10.278152,9.7010327 11.2146587,9.07305171 12.2461789,8.64531924 C12.7595804,8.43243105 13.2937632,8.27026395 13.8422741,8.16175598 C14.2761658,8.07592232 14.7178053,8.02389869 15.1642815,8.00652258 L15.5,8 Z M32,22 C32.5522847,22 33,22.4477153 33,23 C33,23.5522847 32.5522847,24 32,24 L30,24 C29.4477153,24 29,23.5522847 29,23 C29,22.4477153 29.4477153,22 30,22 L32,22 Z M34,18 C34.5522847,18 35,18.4477153 35,19 C35,19.5522847 34.5522847,20 34,20 L30,20 C29.4477153,20 29,19.5522847 29,19 C29,18.4477153 29.4477153,18 30,18 L34,18 Z M16,8 C20.418278,8 24,11.581722 24,16 L24,16 L16,16 Z M36,14 C36.5522847,14 37,14.4477153 37,15 C37,15.5522847 36.5522847,16 36,16 L30,16 C29.4477153,16 29,15.5522847 29,15 C29,14.4477153 29.4477153,14 30,14 L36,14 Z M38,10 C38.5522847,10 39,10.4477153 39,11 C39,11.5522847 38.5522847,12 38,12 L30,12 C29.4477153,12 29,11.5522847 29,11 C29,10.4477153 29.4477153,10 30,10 L38,10 Z" id="形状结合"></path>
                    </g>
                </g>
            </g>
        </g>
    </g>
</svg>