<?xml version="1.0" encoding="UTF-8"?>
<svg width="48px" height="42px" viewBox="0 0 48 42" version="1.1" xmlns="http://www.w3.org/2000/svg" xmlns:xlink="http://www.w3.org/1999/xlink">
    <title>形状结合</title>
    <g id="页面-1" stroke="none" stroke-width="1" fill="none" fill-rule="evenodd">
        <g id="首页-英文版" transform="translate(-974.000000, -4198.000000)" fill="#0E0E0E" fill-rule="nonzero">
            <g id="项目特点" transform="translate(0.000000, 3141.000000)">
                <g id="编组-14" transform="translate(972.000000, 160.000000)">
                    <g id="形状结合-7" transform="translate(2.000000, 897.000000)">
                        <path d="M43,40 C43.5522847,40 44,40.4477153 44,41 C44,41.5522847 43.5522847,42 43,42 L5,42 C4.44771525,42 4,41.5522847 4,41 C4,40.4477153 4.44771525,40 5,40 L43,40 Z M40,0 C44.418278,0 48,3.581722 48,8 L48,26 C48,30.418278 44.418278,34 40,34 L8,34 C3.581722,34 0,30.418278 0,26 L0,8 C0,3.581722 3.581722,0 8,0 L40,0 Z M40,2 L8,2 C4.76160306,2 2.12242824,4.56557489 2.00413847,7.77506174 L2,8 L2,26 C2,29.2383969 4.56557489,31.8775718 7.77506174,31.9958615 L8,32 L40,32 C43.2383969,32 45.8775718,29.4344251 45.9958615,26.2249383 L46,26 L46,8 C46,4.76160306 43.4344251,2.12242824 40.2249383,2.00413847 L40,2 Z M27.8452995,8.33974596 C28.5598306,8.33974596 29.2200847,8.72094381 29.5773503,9.33974596 L33.4226497,16 C33.7799153,16.6188022 33.7799153,17.3811978 33.4226497,18 L29.5773503,24.660254 C29.2200847,25.2790562 28.5598306,25.660254 27.8452995,25.660254 L20.1547005,25.660254 C19.4401694,25.660254 18.7799153,25.2790562 18.4226497,24.660254 L14.5773503,18 C14.2200847,17.3811978 14.2200847,16.6188022 14.5773503,16 L18.4226497,9.33974596 C18.7799153,8.72094381 19.4401694,8.33974596 20.1547005,8.33974596 L27.8452995,8.33974596 Z M27.8452995,10.339746 L20.1547005,10.339746 L16.3094011,17 L20.1547005,23.660254 L27.8452995,23.660254 L31.6905989,17 L27.8452995,10.339746 Z M24,13 C26.209139,13 28,14.790861 28,17 C28,19.209139 26.209139,21 24,21 C21.790861,21 20,19.209139 20,17 C20,14.790861 21.790861,13 24,13 Z M24,15 C22.8954305,15 22,15.8954305 22,17 C22,18.1045695 22.8954305,19 24,19 C25.1045695,19 26,18.1045695 26,17 C26,15.8954305 25.1045695,15 24,15 Z" id="形状结合"></path>
                    </g>
                </g>
            </g>
        </g>
    </g>
</svg>