<?xml version="1.0" encoding="UTF-8"?>
<svg width="48px" height="48px" viewBox="0 0 48 48" version="1.1" xmlns="http://www.w3.org/2000/svg" xmlns:xlink="http://www.w3.org/1999/xlink">
    <title>形状结合</title>
    <g id="页面-1" stroke="none" stroke-width="1" fill="none" fill-rule="evenodd">
        <g id="首页-英文版" transform="translate(-974.000000, -3982.000000)" fill="#0E0E0E">
            <g id="项目特点" transform="translate(0.000000, 3141.000000)">
                <g id="编组-14" transform="translate(972.000000, 160.000000)">
                    <g id="形状结合-5" transform="translate(2.000000, 681.000000)">
                        <path d="M24,0 C30.627417,0 36,4.77562934 36,10.6666667 L36,14 L40,14 C44.418278,14 48,17.581722 48,22 L48,40 C48,44.418278 44.418278,48 40,48 L8,48 C3.581722,48 0,44.418278 0,40 L0,22 C0,17.581722 3.581722,14 8,14 L12,14 L12,10.6666667 C12,4.77562934 17.372583,0 24,0 Z M40,16 L8,16 C4.76160306,16 2.12242824,18.5655749 2.00413847,21.7750617 L2,22 L2,40 C2,43.2383969 4.56557489,45.8775718 7.77506174,45.9958615 L8,46 L40,46 C43.2383969,46 45.8775718,43.4344251 45.9958615,40.2249383 L46,40 L46,22 C46,18.7616031 43.4344251,16.1224282 40.2249383,16.0041385 L40,16 Z M24,26 C26.209139,26 28,27.790861 28,30 C28,31.8635652 26.7256022,33.429479 25.0007613,33.8737865 L25.0007613,33.8737865 L25,39 C25,39.5522847 24.5522847,40 24,40 C23.4477153,40 23,39.5522847 23,39 L23,39 L23.0002435,33.8740452 C21.2748927,33.4300871 20,31.8639271 20,30 C20,27.790861 21.790861,26 24,26 Z M24,28 C22.8954305,28 22,28.8954305 22,30 C22,31.1045695 22.8954305,32 24,32 C25.1045695,32 26,31.1045695 26,30 C26,28.8954305 25.1045695,28 24,28 Z M24,2 C18.5707601,2 14.1520683,5.70857496 14.0038418,10.3315101 L14,10.5714286 L14,14 L34,14 L34,10.5714286 C34,5.91779436 29.6733292,2.13034424 24.2799048,2.00329297 L24,2 Z" id="形状结合"></path>
                    </g>
                </g>
            </g>
        </g>
    </g>
</svg>