<?xml version="1.0" encoding="UTF-8"?>
<svg width="48px" height="48px" viewBox="0 0 48 48" version="1.1" xmlns="http://www.w3.org/2000/svg" xmlns:xlink="http://www.w3.org/1999/xlink">
    <title>形状结合</title>
    <g id="页面-1" stroke="none" stroke-width="1" fill="none" fill-rule="evenodd">
        <g id="首页-英文版" transform="translate(-974.000000, -4090.000000)" fill="#0E0E0E" fill-rule="nonzero">
            <g id="项目特点" transform="translate(0.000000, 3141.000000)">
                <g id="编组-14" transform="translate(972.000000, 160.000000)">
                    <g id="形状结合-6" transform="translate(2.000000, 789.000000)">
                        <path d="M45.3134459,2.71759364 C48.382113,5.78626076 48.8087955,10.9396034 46.7851708,16.9996056 C46.6155562,17.5075381 46.0664805,17.7823529 45.5587759,17.6134218 C45.0510713,17.4444907 44.7769951,16.8957843 44.9466097,16.3878519 C46.7616476,10.9524896 46.3966377,6.5440101 43.9418336,4.08920597 C41.1519444,1.29931674 35.9968339,1.3088702 30.1072285,3.64524436 L29.4498881,3.91439287 C28.276204,4.40981666 27.0762177,4.99534638 25.8624977,5.66733935 L26.0948688,5.84360089 L26.0948688,5.84360089 C29.1376751,7.84250887 32.1191269,10.2803964 34.9030334,13.0643028 C37.8262764,15.9875458 40.3180801,19.0764841 42.3148823,22.1621463 L42.7845783,22.9025558 C48.3827882,31.9080013 49.717061,40.7702574 45.2048836,45.2824348 C43.6621634,46.825155 41.574415,47.7111975 39.084706,47.9358909 C37.8619785,48.0462407 36.5478377,47.9966387 35.1611066,47.7915347 C34.6314767,47.7132 34.2650518,47.2204322 34.3426739,46.6909072 C34.4202959,46.1613822 34.9125709,45.7956202 35.4422009,45.873955 C36.6827989,46.0574453 37.844213,46.1012826 38.9078943,46.0052865 C40.9680056,45.8193638 42.6301425,45.1139513 43.8332713,43.9108224 C47.4497944,40.2942993 46.3621785,32.7032962 41.5999247,24.6899841 L41.1827564,24.0021774 C41.1117365,23.8873982 41.0399727,23.7725535 40.9674679,23.6576537 L40.5235724,22.9676764 C39.7690082,21.816888 38.9409521,20.6626592 38.0424056,19.5153461 L37.4948428,18.827871 C36.2902334,17.3404986 34.9675096,15.8683143 33.5332658,14.4340704 C30.8419566,11.7427613 27.9631463,9.38880215 24.9695022,7.41854354 C24.7465172,7.24531208 24.5151881,7.07443521 24.2755148,6.90592499 L24.0331886,6.73972091 L24.0331886,6.73972091 L23.3438105,7.17474336 C20.3538191,9.09831653 17.3335693,11.5207238 14.4650816,14.3892115 C11.5965939,17.2576992 9.17418661,20.277949 7.25061344,23.2679404 L6.81559099,23.9573185 L6.73373956,24.089584 C8.75123402,27.340315 11.3332896,30.5875871 14.3565193,33.6108169 C17.0361225,36.2904201 19.9016465,38.6356528 22.8197047,40.5565983 C23.2001692,40.8070565 23.5809298,41.0498982 23.9616161,41.2849357 L24.0737211,41.2154486 L24.0737211,41.2154486 L24.7630991,40.7804261 C27.7530906,38.856853 30.7733403,36.4344457 33.6418281,33.565958 C34.9790165,32.2287696 36.2344787,30.8438011 37.3972802,29.426102 C37.983311,28.7116074 38.5450458,27.9897181 39.0810363,27.2626677 C39.3496108,26.8983568 39.6116293,26.5328745 39.8669102,26.1665201 L40.2445852,25.6166236 C40.54481,25.1730517 41.1474492,25.0563623 41.5906175,25.3559904 C42.0337858,25.6556186 42.1496643,26.2581013 41.8494394,26.7016732 C41.7203247,26.8924358 41.58945,27.0829918 41.4568386,27.2733029 C41.1916597,27.6538619 40.9195763,28.0333833 40.6407748,28.4115668 C40.0848669,29.1656344 39.5025839,29.9139304 38.8954053,30.6542085 C37.6920781,32.121317 36.3937684,33.5535528 35.0115957,34.9357256 C32.068759,37.8785622 28.9579985,40.3841566 25.8517058,42.3876597 C26.3078554,42.6390234 26.7628255,42.8780548 27.216158,43.1050412 C27.6950563,43.3448287 27.8894162,43.9271775 27.650273,44.4057535 C27.4111299,44.8843296 26.8290422,45.0779059 26.3501439,44.8381184 C25.5572477,44.4411102 24.7606856,44.0095784 23.9634414,43.5451018 C15.3819588,48.5233728 7.10333647,49.5474486 2.79346372,45.2375759 C-1.51239968,40.9317124 -0.494233935,32.66448 4.47274938,24.0916864 C3.08137505,21.7157963 1.98029787,19.3417069 1.21317661,17.0444645 C0.217084413,14.0615394 -0.190421814,11.2773489 0.0343451379,8.85091674 C0.0918875822,8.22972739 0.190777441,7.63281997 0.33139182,7.06247069 C0.400821318,6.78085607 0.480400169,6.50581231 0.570154323,6.23761147 C0.739960961,5.73020005 1.2891403,5.45707102 1.79678071,5.62756071 C2.30442113,5.7980504 2.57828951,6.34759782 2.40848287,6.85500924 C2.33550953,7.07306611 2.27050424,7.29774014 2.21352113,7.52887068 C2.09645969,8.00368632 2.01333844,8.5054131 1.96453239,9.03229029 C1.76665177,11.1684757 2.1355979,13.6892134 3.05173768,16.4327108 C3.67868107,18.3101727 4.5461497,20.2500912 5.62716774,22.2042404 C7.63343258,19.0897452 10.1445767,15.9701812 13.095314,13.0194439 C16.0160356,10.0987223 19.1021667,7.60869603 22.185173,5.612763 C20.5276036,4.70192227 18.5837473,3.87348406 16.3551597,3.12928879 C13.6116623,2.21314901 11.0909246,1.84420288 8.95473919,2.04208349 C8.43051807,2.09064351 7.93119266,2.1731738 7.45849834,2.28930547 C7.22653458,2.34629438 7.0010643,2.41135478 6.78224986,2.48443205 C6.27473379,2.65392676 5.72535428,2.379721 5.55517638,1.87197636 C5.38499849,1.36423171 5.65846512,0.81522074 6.16598119,0.645726033 C6.43507307,0.55585765 6.71104557,0.476224623 6.99362421,0.406800627 C7.56134259,0.267323422 8.15533699,0.169145903 8.77336563,0.111896244 C11.1997978,-0.112870709 13.9839883,0.294635518 16.9669134,1.29072771 C19.73909,2.21644437 22.1133729,3.27602891 24.0657738,4.4563102 C32.6742515,-0.561886379 40.9903857,-1.60546655 45.3134459,2.71759364 Z M29.4393541,44.8887595 C30.0067307,44.3206193 30.9266294,44.3206193 31.494006,44.8887595 C32.0613821,45.4569002 32.0613821,46.3780378 31.494006,46.9461785 C30.9266294,47.5143187 30.0067307,47.5143187 29.4393541,46.9461785 C28.871978,46.3780378 28.871978,45.4569002 29.4393541,44.8887595 Z M5.63857701,25.9777073 L5.41443508,26.392285 C4.87854283,27.3996124 4.40311611,28.3959479 3.99026295,29.374018 L3.72111444,30.0313584 C1.38474028,35.9209638 1.37518682,41.0760743 4.16507605,43.8659635 C6.95496529,46.6558528 12.1100757,46.6462993 17.9996812,44.3099251 L18.6570216,44.0407766 C19.7751848,43.5687887 20.9172207,43.0150181 22.0722614,42.3826147 C21.9667849,42.3138746 21.8610587,42.2448547 21.7553691,42.1752797 C18.7261737,40.181173 15.7585278,37.7523605 12.9867517,34.9805845 C10.1289961,32.1228288 7.6473608,29.0661741 5.63857701,25.9777073 Z M24.0534548,16.2185737 C28.332875,16.2185737 31.8020305,19.6924013 31.8020305,23.9775847 C31.8020305,28.2627682 28.332875,31.7365958 24.0534548,31.7365958 C19.7740346,31.7365958 16.3048791,28.2627682 16.3048791,23.9775847 C16.3048791,19.6924013 19.7740346,16.2185737 24.0534548,16.2185737 Z M24.0534548,18.1583265 C20.8438897,18.1583265 18.2420231,20.7636971 18.2420231,23.9775847 C18.2420231,27.1914723 20.8438897,29.796843 24.0534548,29.796843 C27.26302,29.796843 29.8648866,27.1914723 29.8648866,23.9775847 C29.8648866,20.7636971 27.26302,18.1583265 24.0534548,18.1583265 Z M42.8877591,19.8039147 C43.4551357,19.2357745 44.3750345,19.2357745 44.942411,19.8039147 C45.5097871,20.3720553 45.5097871,21.293193 44.942411,21.8613336 C44.3750345,22.4294738 43.4551357,22.4294738 42.8877591,21.8613336 C42.3203831,21.293193 42.3203831,20.3720553 42.8877591,19.8039147 Z M2.5130536,2.11721121 C3.08043015,1.54907102 4.00032892,1.54907102 4.56770548,2.11721121 C5.13508156,2.68535187 5.13508156,3.60648951 4.56770548,4.17463018 C4.00032892,4.74277037 3.08043015,4.74277037 2.5130536,4.17463018 C1.94567752,3.60648951 1.94567752,2.68535187 2.5130536,2.11721121 Z" id="形状结合"></path>
                    </g>
                </g>
            </g>
        </g>
    </g>
</svg>